# xmcd
#
# Track frame offsets:
# 150
# 1723
# 10141
# 19412
# 22323
# 42197
# 56209
# 66946
# 74279
# 85089
# 91241
# 102021
# 103049
# 117052
# 131883
# 149729
# 163813
# 171425
# 184749
# 201295
# 207587
# 214023
# 228989
#
# Disc length: 3179 seconds
#
# Revision: 0
# Processed by: cddbd v1.5.2PL0 Copyright (c) Steve Scherf et al.
# Submitted via: Audion 3.0.2 (http://www.panic.com/audion/)
#
DISCID=510c6917
DTITLE=STYLES - DRAMA STYLES P
DYEAR=1900
DGENRE=
TTITLE0=SALUTE TI KNOCKOUT
TTITLE1=AIR OF THE NIGHT
TTITLE2=THE REAL STYLES 
TTITLE3=GHOST WHO SAT BY THE DOOR
TTITLE4=SHOW YOU HOW TO DO THIS
TTITLE5=THE BLACKOUT
TTITLE6=MAKIN MONEY FT WILLIE THE KID
TTITLE7=WAR TIME
TTITLE8=RETURN OF THE GHOST 
TTITLE9=HE OLD FROM THE NEW 
TTITLE10=LIVE BY THE GUN 
TTITLE11=INTERLUDE
TTITLE12=BLOWN AWAY 
TTITLE13=TESTIFY
TTITLE14=NIGGAS IANT ACTING THE SAME
TTITLE15=WHO WANNA PROBLEM
TTITLE16=TALES FROM THE HOOD
TTITLE17=ENEMY OF THE STATE
TTITLE18=SUPER STARS 
TTITLE19=POWER OF APHILIATION 
TTITLE20=THIS IS HOW WE LIVE 
TTITLE21=REAL SHIT
TTITLE22=ITS A GHOST TOWN 
EXTD=
EXTT0=
EXTT1=
EXTT2=
EXTT3=
EXTT4=
EXTT5=
EXTT6=
EXTT7=
EXTT8=
EXTT9=
EXTT10=
EXTT11=
EXTT12=
EXTT13=
EXTT14=
EXTT15=
EXTT16=
EXTT17=
EXTT18=
EXTT19=
EXTT20=
EXTT21=
EXTT22=
PLAYORDER=
